<?xml version="1.0" encoding="utf-8"?><svg xmlns="http://www.w3.org/2000/svg" xmlns:xlink="http://www.w3.org/1999/xlink"><symbol fill="none" viewBox="0 0 32 32" id="arrow-white" xmlns="http://www.w3.org/2000/svg"><path d="M25.333 16H6.667M18.667 22.667L25.333 16M18.667 9.333L25.333 16" stroke="#fff" stroke-width="2" stroke-linecap="round" stroke-linejoin="round"/></symbol><symbol fill="none" viewBox="0 0 32 32" id="basket" xmlns="http://www.w3.org/2000/svg"><path fill-rule="evenodd" clip-rule="evenodd" d="M7.625 8.355a1 1 0 011.185.771l2.047 9.661c.175.831.95 1.398 1.797 1.314l9.087-.91c.7-.07 1.28-.57 1.451-1.253l1.798-7.19a.333.333 0 00-.324-.415H13.582a1 1 0 110-2h11.084a2.333 2.333 0 012.264 2.9l-1.797 7.19a3.667 3.667 0 01-3.192 2.759l-9.088.909a3.668 3.668 0 01-3.953-2.89l-2.047-9.66a1 1 0 01.772-1.186z" fill="#2E1066"/><path fill-rule="evenodd" clip-rule="evenodd" d="M7.625 8.355a1 1 0 011.185.771l2.047 9.661c.175.831.95 1.398 1.797 1.314l9.087-.91c.7-.07 1.28-.57 1.451-1.253l1.798-7.19a.333.333 0 00-.324-.415H13.582a1 1 0 110-2h11.084a2.333 2.333 0 012.264 2.9l-1.797 7.19a3.667 3.667 0 01-3.192 2.759l-9.088.909a3.668 3.668 0 01-3.953-2.89l-2.047-9.66a1 1 0 01.772-1.186z" fill="#410F9E"/><path fill-rule="evenodd" clip-rule="evenodd" d="M7.625 8.355a1 1 0 011.185.771l2.047 9.661c.175.831.95 1.398 1.797 1.314l9.087-.91c.7-.07 1.28-.57 1.451-1.253l1.798-7.19a.333.333 0 00-.324-.415H13.582a1 1 0 110-2h11.084a2.333 2.333 0 012.264 2.9l-1.797 7.19a3.667 3.667 0 01-3.192 2.759l-9.088.909a3.668 3.668 0 01-3.953-2.89l-2.047-9.66a1 1 0 01.772-1.186z" fill="#453888"/><path fill-rule="evenodd" clip-rule="evenodd" d="M7.625 8.355a1 1 0 011.185.771l2.047 9.661c.175.831.95 1.398 1.797 1.314l9.087-.91c.7-.07 1.28-.57 1.451-1.253l1.798-7.19a.333.333 0 00-.324-.415H13.582a1 1 0 110-2h11.084a2.333 2.333 0 012.264 2.9l-1.797 7.19a3.667 3.667 0 01-3.192 2.759l-9.088.909a3.668 3.668 0 01-3.953-2.89l-2.047-9.66a1 1 0 01.772-1.186z" fill="#5946D7"/><path fill-rule="evenodd" clip-rule="evenodd" d="M7.625 8.355a1 1 0 011.185.771l2.047 9.661c.175.831.95 1.398 1.797 1.314l9.087-.91c.7-.07 1.28-.57 1.451-1.253l1.798-7.19a.333.333 0 00-.324-.415H13.582a1 1 0 110-2h11.084a2.333 2.333 0 012.264 2.9l-1.797 7.19a3.667 3.667 0 01-3.192 2.759l-9.088.909a3.668 3.668 0 01-3.953-2.89l-2.047-9.66a1 1 0 01.772-1.186z" fill="#6B59CC"/><path fill-rule="evenodd" clip-rule="evenodd" d="M3.667 5.333a1 1 0 011-1h2.298a1 1 0 01.977.789l.867 4a1 1 0 01-1.954.423l-.696-3.212H4.667a1 1 0 01-1-1z" fill="#2E1066"/><path fill-rule="evenodd" clip-rule="evenodd" d="M3.667 5.333a1 1 0 011-1h2.298a1 1 0 01.977.789l.867 4a1 1 0 01-1.954.423l-.696-3.212H4.667a1 1 0 01-1-1z" fill="#410F9E"/><path fill-rule="evenodd" clip-rule="evenodd" d="M3.667 5.333a1 1 0 011-1h2.298a1 1 0 01.977.789l.867 4a1 1 0 01-1.954.423l-.696-3.212H4.667a1 1 0 01-1-1z" fill="#453888"/><path fill-rule="evenodd" clip-rule="evenodd" d="M3.667 5.333a1 1 0 011-1h2.298a1 1 0 01.977.789l.867 4a1 1 0 01-1.954.423l-.696-3.212H4.667a1 1 0 01-1-1z" fill="#5946D7"/><path fill-rule="evenodd" clip-rule="evenodd" d="M3.667 5.333a1 1 0 011-1h2.298a1 1 0 01.977.789l.867 4a1 1 0 01-1.954.423l-.696-3.212H4.667a1 1 0 01-1-1z" fill="#6B59CC"/><path fill-rule="evenodd" clip-rule="evenodd" d="M21.327 26.182a1.484 1.484 0 011.485-1.493 1.49 1.49 0 011.49 1.483v.005a1.488 1.488 0 01-2.975.005zm.612-.005h-.612v.005" fill="#2E1066"/><path fill-rule="evenodd" clip-rule="evenodd" d="M21.327 26.182a1.484 1.484 0 011.485-1.493 1.49 1.49 0 011.49 1.483v.005a1.488 1.488 0 01-2.975.005zm.612-.005h-.612v.005" fill="#410F9E"/><path fill-rule="evenodd" clip-rule="evenodd" d="M21.327 26.182a1.484 1.484 0 011.485-1.493 1.49 1.49 0 011.49 1.483v.005a1.488 1.488 0 01-2.975.005zm.612-.005h-.612v.005" fill="#453888"/><path fill-rule="evenodd" clip-rule="evenodd" d="M21.327 26.182a1.484 1.484 0 011.485-1.493 1.49 1.49 0 011.49 1.483v.005a1.488 1.488 0 01-2.975.005zm.612-.005h-.612v.005" fill="#5946D7"/><path fill-rule="evenodd" clip-rule="evenodd" d="M21.327 26.182a1.484 1.484 0 011.485-1.493 1.49 1.49 0 011.49 1.483v.005a1.488 1.488 0 01-2.975.005zm.612-.005h-.612v.005" fill="#6B59CC"/><path fill-rule="evenodd" clip-rule="evenodd" d="M10.11 26.177a1.484 1.484 0 011.486-1.488 1.489 1.489 0 01.001 2.978c-.815 0-1.49-.66-1.487-1.49zm2 0v0z" fill="#2E1066"/><path fill-rule="evenodd" clip-rule="evenodd" d="M10.11 26.177a1.484 1.484 0 011.486-1.488 1.489 1.489 0 01.001 2.978c-.815 0-1.49-.66-1.487-1.49zm2 0v0z" fill="#410F9E"/><path fill-rule="evenodd" clip-rule="evenodd" d="M10.11 26.177a1.484 1.484 0 011.486-1.488 1.489 1.489 0 01.001 2.978c-.815 0-1.49-.66-1.487-1.49zm2 0v0z" fill="#453888"/><path fill-rule="evenodd" clip-rule="evenodd" d="M10.11 26.177a1.484 1.484 0 011.486-1.488 1.489 1.489 0 01.001 2.978c-.815 0-1.49-.66-1.487-1.49zm2 0v0z" fill="#5946D7"/><path fill-rule="evenodd" clip-rule="evenodd" d="M10.11 26.177a1.484 1.484 0 011.486-1.488 1.489 1.489 0 01.001 2.978c-.815 0-1.49-.66-1.487-1.49zm2 0v0z" fill="#6B59CC"/></symbol><symbol fill="none" viewBox="0 0 24 24" id="basket-card" xmlns="http://www.w3.org/2000/svg"><path d="M5.874 7l1.535 7.246a2 2 0 002.156 1.576l6.816-.682a2 2 0 001.741-1.505l1.348-5.392A1 1 0 0018.5 7h-8.313M5.874 7l-.65-3H3.5M17.109 19.267a.366.366 0 10.004.732.366.366 0 00-.004-.732M8.697 19.267a.363.363 0 00-.364.366.366.366 0 10.364-.366"/></symbol><symbol fill="none" viewBox="0 0 24 24" id="basket_2" xmlns="http://www.w3.org/2000/svg"><path d="M1.5 1.5H4L7 15c.167.833 1.1 2.4 3.5 2l7.5-.5c1 0 3.1-.6 3.5-3l1-5c.5-1.167.8-3.4-2-3h-10" stroke="#6B59CC" stroke-width="2" stroke-linecap="round"/><circle cx="8.5" cy="22.5" r="1.5" fill="#6B59CC"/><circle cx="19.5" cy="22.5" r="1.5" fill="#6B59CC"/></symbol><symbol fill="none" viewBox="0 0 24 24" id="btn-arrow" xmlns="http://www.w3.org/2000/svg"><path d="M19 12H5M14 17l5-5M14 7l5 5" stroke="#5946D7" stroke-width="1.5" stroke-linecap="round" stroke-linejoin="round"/></symbol><symbol fill="none" viewBox="0 0 24 24" id="burger" xmlns="http://www.w3.org/2000/svg"><path d="M4 6h16M4 12h16" stroke="#1B1D1F" stroke-width="1.5" stroke-linecap="round" stroke-linejoin="round"/><path opacity=".4" d="M4 18h16" stroke="#1B1D1F" stroke-width="1.5" stroke-linecap="round" stroke-linejoin="round"/></symbol><symbol fill="none" viewBox="0 0 32 32" id="catalog-1" xmlns="http://www.w3.org/2000/svg"><path fill-rule="evenodd" clip-rule="evenodd" d="M29.295 15.961C29.295 8.62 23.343 2.667 16 2.667v5.317a7.977 7.977 0 017.977 7.977h5.318z" fill="#5946D7" fill-opacity=".1" stroke="#5946D7" stroke-width="2" stroke-linecap="round" stroke-linejoin="round"/><path d="M26.561 15.961v.739c0 6.241-5.058 11.3-11.3 11.3-6.241 0-11.3-5.059-11.3-11.3 0-6.241 5.059-11.3 11.3-11.3H16" stroke="#5946D7" stroke-width="2" stroke-linecap="round" stroke-linejoin="round"/><path fill-rule="evenodd" clip-rule="evenodd" d="M18.238 13.724a4.21 4.21 0 11-5.953 5.953 4.21 4.21 0 015.953-5.953" fill="#5946D7" fill-opacity=".1"/><path d="M18.238 13.724a4.21 4.21 0 11-5.953 5.953 4.21 4.21 0 015.953-5.953" stroke="#5946D7" stroke-width="2" stroke-linecap="round" stroke-linejoin="round"/></symbol><symbol fill="none" viewBox="0 0 32 32" id="catalog-10" xmlns="http://www.w3.org/2000/svg"><path d="M2.5 24.5L3 10v-.5h6L11.5 7l4.5-.5v20H4l-1.5-2z" fill="#5946D7" fill-opacity=".1"/><path d="M22.667 9.333V6.667c0-.736.597-1.334 1.333-1.334h2.667c.736 0 1.333.598 1.333 1.334v2.666M22.667 15.333v4M24.667 17.333h-4M11.333 17.333h-4M4 9.333V6.667c0-.736.597-1.334 1.333-1.334H8c.736 0 1.333.598 1.333 1.334v2.666" stroke="#5946D7" stroke-width="2" stroke-linecap="round" stroke-linejoin="round"/><path clip-rule="evenodd" d="M22.667 9.333H28c.736 0 1.333.598 1.333 1.333V24a2.666 2.666 0 01-2.666 2.666H5.333A2.666 2.666 0 012.667 24V10.666c0-.736.597-1.333 1.333-1.333h5.333l2.276-2.276c.251-.25.59-.39.943-.39h6.896c.353 0 .693.14.943.39l2.276 2.276v0z" stroke="#5946D7" stroke-width="2" stroke-linecap="round" stroke-linejoin="round"/></symbol><symbol fill="none" viewBox="0 0 32 32" id="catalog-11" xmlns="http://www.w3.org/2000/svg"><path fill-rule="evenodd" clip-rule="evenodd" d="M18.732 21.436v0a2.919 2.919 0 01-3.399-2.879v-5.114a2.918 2.918 0 013.399-2.878v0A5.51 5.51 0 0123.336 16v0a5.51 5.51 0 01-4.604 5.436v0z" fill="#5946D7" fill-opacity=".1" stroke="#5946D7" stroke-width="2" stroke-linecap="round" stroke-linejoin="round"/><path d="M9.33 13.332l2.668-.667M9.33 16.667L11.999 16" stroke="#5946D7" stroke-width="2" stroke-linecap="round" stroke-linejoin="round"/><path clip-rule="evenodd" d="M16 28.005v0C9.37 28.005 3.995 22.63 3.995 16v0C3.995 9.37 9.37 3.995 16 3.995v0c6.63 0 12.005 5.375 12.005 12.005v0c0 6.63-5.375 12.005-12.005 12.005v0z" stroke="#5946D7" stroke-width="2" stroke-linecap="round" stroke-linejoin="round"/><path d="M9.33 20.002l2.668-.667" stroke="#5946D7" stroke-width="2" stroke-linecap="round" stroke-linejoin="round"/></symbol><symbol fill="none" viewBox="0 0 32 32" id="catalog-2" xmlns="http://www.w3.org/2000/svg"><path opacity=".1" d="M5.5 12l3.5-.5L11 9h7v19.5l-5.5-.5L9 22.5H5.5V12z" fill="#5946D7"/><path d="M1.333 12v10.667M16 4v5.333M12 4h8" stroke="#5946D7" stroke-width="2" stroke-linecap="round" stroke-linejoin="round"/><path clip-rule="evenodd" d="M26.667 12v2.667H24l-2.667-5.334H10.667L8 12H5.333v10.667h4l2.299 4.596c.225.452.687.737 1.192.737h8.51c.735 0 1.333-.597 1.333-1.333v-4h4v2.666h2.666c.736 0 1.334-.597 1.334-1.333V13.333c0-.736-.598-1.333-1.334-1.333h-2.666z" stroke="#5946D7" stroke-width="2" stroke-linecap="round" stroke-linejoin="round"/><path d="M5.333 17.333h-4" stroke="#5946D7" stroke-width="2" stroke-linecap="round" stroke-linejoin="round"/></symbol><symbol fill="none" viewBox="0 0 34 34" id="catalog-3" xmlns="http://www.w3.org/2000/svg"><path d="M3 27V9l12-6.5L13 17H8.5v10H3z" fill="#5946D7" fill-opacity=".1"/><path d="M12.197 9.914h5.354M12.748 17H8.497v9.92" stroke="#5946D7" stroke-width="2" stroke-linecap="round" stroke-linejoin="round"/><path d="M8.496 26.92H2.827V10.71c0-.972.528-1.868 1.378-2.34l9.37-5.205a2.677 2.677 0 012.6 0l9.37 5.205a2.677 2.677 0 011.376 2.34v2.038" stroke="#5946D7" stroke-width="2" stroke-linecap="round" stroke-linejoin="round"/><path fill-rule="evenodd" clip-rule="evenodd" d="M31.173 25.22a2.835 2.835 0 00-2.835-2.834H17a2.835 2.835 0 00-2.835 2.834" fill="#5946D7" fill-opacity=".1"/><path d="M31.173 25.22a2.835 2.835 0 00-2.835-2.834H17a2.835 2.835 0 00-2.835 2.834" stroke="#5946D7" stroke-width="2" stroke-linecap="round" stroke-linejoin="round"/><path fill-rule="evenodd" clip-rule="evenodd" d="M14.165 25.22v4.535c0 .783.635 1.418 1.418 1.418h1.403c.783 0 1.417-.635 1.417-1.418v-.936h8.532v.936c0 .783.635 1.418 1.417 1.418h1.403c.783 0 1.418-.635 1.418-1.418V25.22" fill="#5946D7" fill-opacity=".1"/><path d="M14.165 25.22v4.535c0 .783.635 1.418 1.418 1.418h1.403c.783 0 1.417-.635 1.417-1.418v-.936h8.532v.936c0 .783.635 1.418 1.417 1.418h1.403c.783 0 1.418-.635 1.418-1.418V25.22M19.462 25.645h-2.119M27.995 25.645h-2.119M29.054 22.296l2.119-1.058M16.291 22.296l-2.126-1.058M19.222 17a2.126 2.126 0 00-2.063 1.637l-.899 3.84.899-3.84A2.126 2.126 0 0119.222 17h6.894c.984.003 1.837.68 2.063 1.637l.899 3.84" stroke="#5946D7" stroke-width="2" stroke-linecap="round" stroke-linejoin="round"/></symbol><symbol fill="none" viewBox="0 0 32 32" id="catalog-4" xmlns="http://www.w3.org/2000/svg"><path d="M22.67 15.676H9.396M18.334 18.58h.667" stroke="#5946D7" stroke-width="2" stroke-linecap="round" stroke-linejoin="round"/><path fill-rule="evenodd" clip-rule="evenodd" d="M9.33 16.41v4.017c0 1.227.994 2.222 2.22 2.224l8.897.018a2.224 2.224 0 002.222-2.224v-8.89a2.223 2.223 0 00-2.218-2.224H14.79c-.68 0-1.322.31-1.744.843l-2.75 3.477a4.452 4.452 0 00-.964 2.759z" fill="#5946D7" fill-opacity=".1" stroke="#5946D7" stroke-width="2" stroke-linecap="round" stroke-linejoin="round"/><rect x="3.995" y="3.995" width="24.01" height="24.01" rx="5" stroke="#5946D7" stroke-width="2" stroke-linecap="round" stroke-linejoin="round"/></symbol><symbol fill="none" viewBox="0 0 32 32" id="catalog-5" xmlns="http://www.w3.org/2000/svg"><path d="M5.157 16.472l1.886-1.885a2.666 2.666 0 013.77 0l6.6 6.6a2.666 2.666 0 010 3.77l-1.885 1.886a2.666 2.666 0 01-3.77 0l-6.6-6.6a2.666 2.666 0 010-3.771z" fill="#5946D7" fill-opacity=".1" stroke="#5946D7" stroke-width="2" stroke-linecap="round" stroke-linejoin="round"/><path d="M6.093 21.187l-2.826 2.826M8.347 29.08l2.826-2.827" stroke="#5946D7" stroke-width="2" stroke-linecap="round" stroke-linejoin="round"/><path fill-rule="evenodd" clip-rule="evenodd" d="M22.128 5.157l-1.885-1.885a1.332 1.332 0 00-1.886 0l-1.494 1.495c-.251.25-.391.59-.391.942v3.22l-1.885 1.884a1.332 1.332 0 000 1.886l4.714 4.714a1.332 1.332 0 001.886 0l1.885-1.885h3.219c.353 0 .693-.14.942-.39l1.495-1.495a1.332 1.332 0 000-1.886l-1.885-1.885" fill="#5946D7" fill-opacity=".1"/><path d="M22.128 5.157l-1.885-1.885a1.332 1.332 0 00-1.886 0l-1.494 1.495c-.251.25-.391.59-.391.942v3.22l-1.885 1.884a1.332 1.332 0 000 1.886l4.714 4.714a1.332 1.332 0 001.886 0l1.885-1.885h3.219c.353 0 .693-.14.942-.39l1.495-1.495a1.332 1.332 0 000-1.886l-1.885-1.885M20.333 13L19 11.667M21.333 29.333V28M29.333 21.333H28M28 28l-1.333-1.333M10.667 2.667V4M2.667 10.667H4M4 4l1.333 1.333M10 19.334L12.667 22" stroke="#5946D7" stroke-width="2" stroke-linecap="round" stroke-linejoin="round"/><path d="M28.728 7.987L25.9 10.815a1.332 1.332 0 01-1.885 0l-2.83-2.828a1.332 1.332 0 010-1.886l2.828-2.828" stroke="#5946D7" stroke-width="2" stroke-linecap="round" stroke-linejoin="round"/></symbol><symbol fill="none" viewBox="0 0 32 32" id="catalog-6" xmlns="http://www.w3.org/2000/svg"><path d="M9 26L3.5 14.5V14L9 11.5l7-1v14L9 26z" fill="#5946D7" fill-opacity=".1"/><path d="M10 17.333l6 12" stroke="#5946D7" stroke-width="2" stroke-linecap="round" stroke-linejoin="round"/><path clip-rule="evenodd" d="M28.385 15.297L23.3 25.467a1.316 1.316 0 01-1.719.621 13.72 13.72 0 00-5.717-1.235 13.72 13.72 0 00-5.717 1.235 1.317 1.317 0 01-1.72-.621l-5.084-10.17c-.323-.644-.083-1.448.557-1.776 3.747-1.92 7.853-2.853 11.963-2.854 4.109.001 8.216.933 11.964 2.854.64.33.88 1.132.558 1.776z" stroke="#5946D7" stroke-width="2" stroke-linecap="round" stroke-linejoin="round"/><path d="M16 6.667c0-.222-.02-.444-.06-.663M16.06 6.004a3.69 3.69 0 00-.06.663M23.45 3.839a4.168 4.168 0 00-.526-.411M19.175 2.817a3.8 3.8 0 00-.702.263M9.076 3.428c-.184.121-.36.259-.526.41M12.825 2.817c.243.063.475.154.702.263M16 17.333V16M16 10.667V12" stroke="#5946D7" stroke-width="2" stroke-linecap="round" stroke-linejoin="round"/></symbol><symbol fill="none" viewBox="0 0 32 32" id="catalog-7" xmlns="http://www.w3.org/2000/svg"><path d="M17 20L7.5 8.5 8 8h12l6.5 7 .5 11-1 1.5h-9V20z" fill="#5946D7" fill-opacity=".1"/><path d="M10.667 24h6.666M10.667 20h2.666M6.667 10a2 2 0 012-2h10.505a2 2 0 011.414.586l5.495 5.495a2 2 0 01.586 1.414V25a3 3 0 01-3 3h-14a3 3 0 01-3-3V10z" stroke="#5946D7" stroke-width="2" stroke-linecap="round" stroke-linejoin="round"/><path d="M16.667 8V5a1 1 0 00-1-1h-5.334a1 1 0 00-1 1v3" stroke="#5946D7" stroke-width="2"/><rect x="18.081" y="11.252" width="7.172" height="3.586" rx="1.793" transform="rotate(45 18.08 11.252)" stroke="#5946D7" stroke-width="2"/></symbol><symbol fill="none" viewBox="0 0 32 32" id="catalog-8" xmlns="http://www.w3.org/2000/svg"><path d="M17 20L7.5 8.5 8 8h12l6.5 7 .5 11-1 1.5h-9V20z" fill="#5946D7" fill-opacity=".1"/><path d="M10.667 24h6.666M10.667 20h2.666M6.667 10a2 2 0 012-2h10.505a2 2 0 011.414.586l5.495 5.495a2 2 0 01.586 1.414V25a3 3 0 01-3 3h-14a3 3 0 01-3-3V10z" stroke="#5946D7" stroke-width="2" stroke-linecap="round" stroke-linejoin="round"/><path d="M16.667 8V5a1 1 0 00-1-1h-5.334a1 1 0 00-1 1v3" stroke="#5946D7" stroke-width="2"/><rect x="18.081" y="11.252" width="7.172" height="3.586" rx="1.793" transform="rotate(45 18.08 11.252)" stroke="#5946D7" stroke-width="2"/></symbol><symbol fill="none" viewBox="0 0 32 32" id="catalog-9" xmlns="http://www.w3.org/2000/svg"><path fill-rule="evenodd" clip-rule="evenodd" d="M25.428 6.572c5.207 5.207 5.207 13.65 0 18.856-5.207 5.207-13.65 5.207-18.856 0-5.207-5.207-5.207-13.65 0-18.856 5.207-5.207 13.65-5.207 18.856 0" fill="#5946D7" fill-opacity=".1"/><path d="M25.428 6.572c5.207 5.207 5.207 13.65 0 18.856-5.207 5.207-13.65 5.207-18.856 0-5.207-5.207-5.207-13.65 0-18.856 5.207-5.207 13.65-5.207 18.856 0" stroke="#5946D7" stroke-width="2" stroke-linecap="round" stroke-linejoin="round"/><path fill-rule="evenodd" clip-rule="evenodd" d="M22.6 9.4A9.333 9.333 0 119.4 22.6 9.333 9.333 0 1122.6 9.4" fill="#fff"/><path d="M22.6 9.4A9.333 9.333 0 119.4 22.6 9.333 9.333 0 1122.6 9.4M16 13.333V6.667M16 25.333v-6.666M17.88 14.12L22.6 9.4M9.4 22.6l4.72-4.72M18.667 16h6.666M6.667 16h6.666M17.88 17.88l4.72 4.72M9.4 9.4l4.72 4.72" stroke="#5946D7" stroke-width="2" stroke-linecap="round" stroke-linejoin="round"/><path fill-rule="evenodd" clip-rule="evenodd" d="M17.886 14.114a2.667 2.667 0 11-3.772 3.772 2.667 2.667 0 013.772-3.771" fill="#fff"/><path d="M17.886 14.114a2.667 2.667 0 11-3.772 3.772 2.667 2.667 0 013.772-3.771" stroke="#5946D7" stroke-width="2" stroke-linecap="round" stroke-linejoin="round"/></symbol><symbol fill="none" viewBox="0 0 20 20" id="chat" xmlns="http://www.w3.org/2000/svg"><path fill-rule="evenodd" clip-rule="evenodd" d="M1.98 4.725c.241-1.404 1.357-2.436 2.766-2.65 1.349-.206 3.2-.408 5.254-.408 2.054 0 3.905.202 5.254.407 1.409.215 2.525 1.247 2.766 2.65.169.98.313 2.222.313 3.61 0 1.387-.144 2.63-.313 3.608-.241 1.404-1.357 2.436-2.766 2.65a35.746 35.746 0 01-4.734.404l-5.096 3.011a.833.833 0 01-1.257-.717v-2.837c-1.128-.375-1.98-1.306-2.187-2.511a21.418 21.418 0 01-.313-3.609c0-1.387.144-2.63.313-3.608zM5 6.667c0-.46.373-.834.833-.834h8.334a.833.833 0 110 1.667H5.833A.833.833 0 015 6.667zM5 10c0-.46.373-.833.833-.833h3.334a.833.833 0 010 1.666H5.833A.833.833 0 015 10z" fill="#fff"/></symbol><symbol fill="none" viewBox="0 0 24 24" id="location" xmlns="http://www.w3.org/2000/svg"><path opacity=".5" clip-rule="evenodd" d="M12 13v0a3 3 0 01-3-3v0a3 3 0 013-3v0a3 3 0 013 3v0a3 3 0 01-3 3z" stroke="#6B59CC" stroke-width="1.5" stroke-linecap="round" stroke-linejoin="round"/><path clip-rule="evenodd" d="M12 21s-7-5.75-7-11a7 7 0 1114 0c0 5.25-7 11-7 11z" stroke="#6B59CC" stroke-width="1.5" stroke-linecap="round" stroke-linejoin="round"/></symbol><symbol fill="none" viewBox="0 0 27 16" id="mastercard" xmlns="http://www.w3.org/2000/svg"><path d="M18.791 15.816h-7.962V.959h7.962v14.857z" fill="#B1B4B9"/><path d="M10.433 8a8 8 0 013.04-6.29A7.903 7.903 0 008.554 0C4.158 0 .594 3.582.594 8s3.564 8 7.96 8c1.858 0 3.567-.64 4.92-1.71A8 8 0 0110.434 8z" fill="#F5F3F0"/><path d="M26.347 8c0 4.418-3.564 8-7.96 8a7.905 7.905 0 01-4.92-1.71A8 8 0 0016.506 8a8 8 0 00-3.04-6.29A7.905 7.905 0 0118.386 0c4.396 0 7.96 3.582 7.96 8z" fill="#7A7A7E"/></symbol><symbol fill="none" viewBox="0 0 20 20" id="menu" xmlns="http://www.w3.org/2000/svg"><path fill-rule="evenodd" clip-rule="evenodd" d="M4.167 10.833a.833.833 0 110-1.666.833.833 0 010 1.666zM10 10.833a.833.833 0 110-1.666.833.833 0 010 1.666zM15.833 10.833a.833.833 0 110-1.666.833.833 0 010 1.666zM4.167 16.667a.833.833 0 110-1.667.833.833 0 010 1.667zM10 16.667A.833.833 0 1110 15a.833.833 0 010 1.667zM15.833 16.667a.833.833 0 110-1.667.833.833 0 010 1.667zM4.167 5a.833.833 0 110-1.666.833.833 0 010 1.666zM10 5a.833.833 0 110-1.666A.833.833 0 0110 5zM15.833 5a.833.833 0 110-1.666.833.833 0 010 1.666z" fill="#fff" stroke="#fff" stroke-width="1.5" stroke-linecap="round" stroke-linejoin="round"/></symbol><symbol fill="none" viewBox="0 0 54 16" id="mir" xmlns="http://www.w3.org/2000/svg"><path fill-rule="evenodd" clip-rule="evenodd" d="M5.234.828C5.71.825 7.126.698 7.725 2.73a734.938 734.938 0 011.93 6.727h.36a1340.91 1340.91 0 011.951-6.727c.606-2.053 2.12-1.9 2.727-1.9h4.674v14.6h-4.764V6.824h-.32l-2.655 8.605H8.043L5.387 6.818h-.32v8.61H.304V.829h4.93zm20.975 0v8.61h.38l3.23-7.08C30.446.95 31.783.828 31.783.828h4.61v14.6H31.53v-8.61h-.38l-3.168 7.08c-.627 1.403-2.027 1.53-2.027 1.53h-4.61V.829h4.864zm26.996 6.938c-.679 1.93-2.81 3.313-5.168 3.313h-5.1v4.35H38.31V7.766h14.894zM48.26.827H38.067c.242 3.25 3.03 6.033 5.916 6.033h9.541c.55-2.702-1.344-6.033-5.266-6.033z" fill="#fff"/></symbol><symbol fill="none" viewBox="0 0 24 24" id="phone" xmlns="http://www.w3.org/2000/svg"><path clip-rule="evenodd" d="M18.965 16.61l-1.173-1.173a1.5 1.5 0 00-2.121 0l-.922.922a.71.71 0 01-.784.158c-1.336-.585-2.656-1.472-3.833-2.649a12.645 12.645 0 01-2.642-3.817.733.733 0 01.162-.811l.826-.826c.671-.671.671-1.62.085-2.206L7.39 5.035a2 2 0 00-2.828 0l-.652.651c-.741.741-1.05 1.81-.85 2.87.494 2.613 2.012 5.474 4.461 7.923 2.449 2.449 5.31 3.967 7.923 4.461 1.06.2 2.129-.109 2.87-.85l.651-.651a2 2 0 000-2.829v0z" stroke="#6B59CC" stroke-width="1.5" stroke-linecap="round" stroke-linejoin="round"/><path opacity=".5" d="M13 6.991A3.944 3.944 0 0117.009 11M13 2.964c2.056 0 4.113.785 5.682 2.354A8.012 8.012 0 0121.036 11" stroke="#6B59CC" stroke-width="1.5" stroke-linecap="round" stroke-linejoin="round"/></symbol><symbol fill="none" viewBox="0 0 48 48" id="provider-catalog" xmlns="http://www.w3.org/2000/svg"><path d="M6 18v-6c0-2.21 1.79-4 4-4h28c2.21 0 4 1.79 4 4v24c0 2.21-1.79 4-4 4H26M18 40l-.502-1.26a4.608 4.608 0 00-1.152-1.678v0a4.615 4.615 0 00-3.138-1.23H8.792c-1.164 0-2.284.44-3.138 1.23v0a4.608 4.608 0 00-1.152 1.678L4 40" stroke="#fff" stroke-width="3" stroke-linecap="round" stroke-linejoin="round"/><path d="M13.474 25.026a3.502 3.502 0 010 4.95 3.502 3.502 0 01-4.95 0 3.502 3.502 0 010-4.95 3.498 3.498 0 014.95 0M22 30V18M28 30v-6.64M34 30V19.1" stroke="#fff" stroke-width="3" stroke-linecap="round" stroke-linejoin="round"/></symbol><symbol viewBox="0 0 24 24" id="search" xmlns="http://www.w3.org/2000/svg"><path fill-rule="evenodd" clip-rule="evenodd" d="M4 11a7 7 0 1114 0 7 7 0 01-14 0zm7-9a9 9 0 105.618 16.032l3.675 3.675a1 1 0 001.414-1.414l-3.675-3.675A9 9 0 0011 2z"/></symbol><symbol fill="none" viewBox="0 0 24 24" id="slider-next" xmlns="http://www.w3.org/2000/svg"><path d="M10 16l4-4-4-4" stroke="#505255" stroke-width="1.5" stroke-linecap="round" stroke-linejoin="round"/></symbol><symbol fill="none" viewBox="0 0 24 24" id="slider-prev" xmlns="http://www.w3.org/2000/svg"><path d="M14 16l-4-4 4-4" stroke="#505255" stroke-width="1.5" stroke-linecap="round" stroke-linejoin="round"/></symbol><symbol viewBox="0 0 12 12" id="star" xmlns="http://www.w3.org/2000/svg"><path d="M6.712.59L8.216 3.76l3.079.327a.788.788 0 01.417 1.398L9.257 7.504l.76 3.394a.788.788 0 01-1.178.846L6 10.017l-2.841 1.726a.789.789 0 01-1.179-.846l.763-3.393L.288 5.486A.788.788 0 01.706 4.09l3.078-.326L5.288.59a.789.789 0 011.424 0z"/></symbol><symbol fill="none" viewBox="0 0 24 24" id="user" xmlns="http://www.w3.org/2000/svg"><path d="M12 14.5c3.47 0 5.464.853 6.593 1.716 1.215.93 1.407 2.559 1.407 4.088C20 21.24 19.24 22 18.304 22H5.696C4.76 22 4 21.24 4 20.304c0-1.529.192-3.159 1.407-4.088C6.536 15.353 8.529 14.5 12 14.5z" fill="#5946D7" fill-opacity=".1" stroke="#6B59CC" stroke-width="1.5" stroke-linecap="round" stroke-linejoin="round"/><circle cx="12" cy="7" r="4" stroke="#6B59CC" stroke-width="1.5"/></symbol><symbol fill="none" viewBox="0 0 47 16" id="visa" xmlns="http://www.w3.org/2000/svg"><path d="M20.202 15.73h-3.776l2.362-14.64h3.776l-2.362 14.64zM33.892 1.448a9.287 9.287 0 00-3.387-.623c-3.73 0-6.355 1.993-6.372 4.843-.03 2.103 1.88 3.27 3.31 3.972 1.461.716 1.958 1.184 1.958 1.823-.015.98-1.18 1.433-2.268 1.433-1.508 0-2.316-.234-3.543-.78l-.498-.233-.528 3.286c.886.405 2.517.764 4.212.78 3.962 0 6.542-1.963 6.573-5 .015-1.667-.994-2.944-3.17-3.987-1.321-.67-2.13-1.122-2.13-1.807.015-.623.684-1.262 2.175-1.262a6.404 6.404 0 012.813.56l.342.156.513-3.161zM38.911 10.544c.311-.841 1.508-4.096 1.508-4.096-.015.031.31-.857.497-1.402l.264 1.262s.715 3.504.87 4.236h-3.139zm4.662-9.454h-2.921c-.9 0-1.585.265-1.974 1.215l-5.61 13.425h3.963l.793-2.196h4.849c.108.514.45 2.196.45 2.196h3.497L43.573 1.09zM13.271 1.09l-3.698 9.983-.404-2.024C8.485 6.713 6.34 4.174 3.947 2.912l3.388 12.803h3.994L17.264 1.09H13.27z" fill="#fff"/><path d="M6.138 1.09H.062L0 1.386C4.74 2.601 7.879 5.53 9.168 9.05l-1.32-6.728c-.218-.935-.886-1.2-1.71-1.23z" fill="#B1B4B9"/></symbol></svg>